<svg xmlns="http://www.w3.org/2000/svg" viewBox="0 0 120 80" fill="none">
  <rect x="8" y="16" width="104" height="48" rx="12" ry="12" stroke="white" stroke-width="8"/>
  <g fill="white">
    <rect x="20" y="28" width="12" height="10" rx="2"/>
    <rect x="34" y="28" width="12" height="10" rx="2"/>
    <rect x="48" y="28" width="12" height="10" rx="2"/>
    <rect x="62" y="28" width="12" height="10" rx="2"/>
    <rect x="76" y="28" width="12" height="10" rx="2"/>
    <rect x="90" y="28" width="12" height="10" rx="2"/>

    <rect x="20" y="42" width="12" height="10" rx="2"/>
    <rect x="34" y="42" width="12" height="10" rx="2"/>
    <rect x="48" y="42" width="12" height="10" rx="2"/>
    <rect x="62" y="42" width="12" height="10" rx="2"/>
    <rect x="76" y="42" width="12" height="10" rx="2"/>
    <rect x="90" y="42" width="12" height="10" rx="2"/>

    <rect x="20" y="56" width="54" height="10" rx="2"/>
    <rect x="78" y="56" width="12" height="10" rx="2"/>
    <rect x="92" y="56" width="12" height="10" rx="2"/>
  </g>
</svg>
